PathFileType	4	(X/Y/Z)	9_coords_data.trc
DataRate	CameraRate	NumFrames	NumMarkers	Units	OrigDataRate	OrigDataStartFrame	OrigNumFrames
30.0	30.0	4	21	m	30.0	10	49
Frame#	Time	THUMB_TIP	THUMB_IP	THUMB_MCP	THUMB_CMC	INDEX_TIP	INDEX_DIP	INDEX_PIP	INDEX_MCP	MIDDLE_TIP	MIDDLE_DIP	MIDDLE_PIP	MIDDLE_MCP	RING_TIP	RING_DIP	RING_PIP	RING_MCP	PINKY_TIP	PINKY_DIP	PINKY_PIP	PINKY_MCP	WRIST
X1	Y1	Z1	X2	Y2	Z2	X3	Y3	Z3	X4	Y4	Z4	X5	Y5	Z5	X6	Y6	Z6	X7	Y7	Z7	X8	Y8	Z8	X9	Y9	Z9	X10	Y10	Z10	X11	Y11	Z11	X12	Y12	Z12	X13	Y13	Z13	X14	Y14	Z14	X15	Y15	Z15	X16	Y16	Z16	X17	Y17	Z17	X18	Y18	Z18	X19	Y19	Z19	X20	Y20	Z20	X21	Y21	Z21
8	0.2999999999999987	0.5432823989090441	0.009978597600367234	-0.11775075226093024	0.5254099716689945	-0.0038265259705432264	-0.121992792777123	0.497754719998347	-0.014226068633792277	-0.11220215605480482	0.4836819221112233	-0.023981332644415154	-0.07101136601975916	0.50664130373878	-0.00900589645337635	-0.11068150841141347	0.5220803532321193	-0.00470344353567953	-0.1191150515359383	0.5310860987975261	0.016834813313181596	-0.12844295975394993	0.4931881073818416	0.02765121231279133	-0.11230654586058614	0.505542908000481	-0.015209057540724324	-0.09710737655782647	0.5224748212972083	-0.009959762195242305	-0.10081617831688672	0.5385457942882287	0.012412193380338166	-0.11033610378120384	0.5030688839102874	0.03391388254998251	-0.09374652530893637	0.5077119720518314	-0.006710447022900579	-0.08952356265202413	0.5253618451767957	-0.008057208874493682	-0.0861076863094497	0.543094713443857	0.008812121257848471	-0.09070671478393308	0.5144623908555316	0.03298609839114286	-0.07552350804895663	0.5076857634392649	-0.01714729968790707	-0.07023675516442068	0.5242997841033982	-0.018099929911022494	-0.07424509809258398	0.5408202747315956	-0.0051603861854453426	-0.07357158745605491	0.5219018557356565	0.020368602897455568	-0.056505609895445424	0.4622830810018608	-0.023011742144276925	-0.051989820119430985
9	0.33333333333333187	0.5433054935514701	0.01001474220060461	-0.1177621593324642	0.5254023588412472	-0.0037895495364709264	-0.12187546666177104	0.4977307001056943	-0.014236963347881049	-0.11218264212625761	0.48371947012636773	-0.023983939161676404	-0.07096890780198531	0.5064818728882382	-0.009142762131683413	-0.11057857104223315	0.5219484806338232	-0.004872823725033393	-0.11897807524472187	0.5310452692433317	0.01658120779274075	-0.1284111448208609	0.49314710414534635	0.027572357615028076	-0.11239366056802402	0.5053472878575093	-0.01514989548175738	-0.09704489262429167	0.5223512990543256	-0.01010876241382408	-0.10071239594534417	0.5384695853161908	0.012199194078805986	-0.11030225908845007	0.5030281763326176	0.03386568975920334	-0.09385180574544394	0.5074444693566745	-0.00700287600665217	-0.08873030390942913	0.5252412441930622	-0.008087463922763827	-0.0860660076655497	0.5430036731424016	0.008742009673601725	-0.09069687316660863	0.5143968215852152	0.033008938155726475	-0.07561426530097282	0.5075378674593599	-0.01706789066486558	-0.07018458298525784	0.5241406972019965	-0.018070910120187134	-0.07422685913976104	0.5406978231574964	-0.005174317335595147	-0.07363399014738478	0.5218552884174031	0.020423909352310865	-0.056587784528451396	0.4622830810018609	-0.023011742144276925	-0.05198982011943096
10	0.3666666666666651	0.5436052459592821	0.010111859602484397	-0.11771704420327156	0.5256018826558305	-0.003630314182796801	-0.12159410100180601	0.497899078826487	-0.01417649648674002	-0.11209922349838813	0.48374176483986253	-0.023962783531566778	-0.07094476995371832	0.5061507903943565	-0.009062983098493627	-0.11035434160494706	0.5216614870936186	-0.005017169914308783	-0.11878343904074531	0.5310334504814853	0.016250095927569208	-0.1283688205598802	0.4932145260377341	0.027549338701327697	-0.11237844343307343	0.5049567697813251	-0.014990844003263004	-0.09706541155502682	0.5220584084055517	-0.010125757719870343	-0.10050995678212182	0.5384396932429969	0.011922098210592758	-0.11025444783830482	0.50310809931088	0.03380576453576578	-0.09385531556295315	0.5070739675284308	-0.0070632940799284505	-0.08776903192540345	0.5249848254780689	-0.008092598395216255	-0.08599654775497714	0.5429278345206182	0.008524258867652179	-0.09069851119639724	0.5144529356224543	0.03295188848772801	-0.07562562567690453	0.5072954039670011	-0.016902776304503098	-0.07015100697388571	0.5238614750447893	-0.018070103649722613	-0.07429861302012136	0.540549978973669	-0.005338337256404202	-0.07384256464359917	0.5219172617826495	0.020329838397962208	-0.056671366093233394	0.4622830810018609	-0.023011742144276925	-0.051989820119430985
11	0.39999999999999825	0.543973899160162	0.010242961141548879	-0.11766182811392867	0.5257828208408083	-0.0033176715982035088	-0.12129417023392439	0.4980260141867343	-0.01385495672900483	-0.11194829914340773	0.4838074885370358	-0.023885516598705858	-0.0708738375273475	0.5055788030596716	-0.008508844747094901	-0.11015085906888886	0.5212170520979296	-0.005014218657632852	-0.11859080903984687	0.5310250003957863	0.01598766451285305	-0.1283239938464677	0.4933721168580544	0.0276563425791706	-0.11220759203096786	0.5042841769988374	-0.013536285225979494	-0.09677790004251713	0.5216824189514367	-0.010004997176903951	-0.1003599639271048	0.538436925322203	0.01168142310771858	-0.11027940148730284	0.5032995587898567	0.03376190141924684	-0.09372748704498893	0.5066548366849472	-0.006354938231272977	-0.0861922074883163	0.5246107748947885	-0.007935132749687157	-0.08589679542299816	0.542889756502463	0.008240839431830738	-0.09083610047219948	0.5146448588275827	0.03280365082891712	-0.07555163497265677	0.5071480933592957	-0.016726231552247617	-0.07020748986979153	0.5236555306851297	-0.018103946777836666	-0.07452100510574963	0.5404887239030007	-0.005559941654213696	-0.07419919685796783	0.5220903151345179	0.020083181581508125	-0.05674032414219948	0.462283081001861	-0.023011742144276925	-0.05198982011943101
